<?xml version="1.0" encoding="UTF-8"?>
<svg width="100px" height="100px" viewBox="0 0 100 100" version="1.1" xmlns="http://www.w3.org/2000/svg" xmlns:xlink="http://www.w3.org/1999/xlink">
    <title>cpp</title>
    <g id="cpp" stroke="none" stroke-width="1" fill="none" fill-rule="evenodd">
        <path d="M52,0 L52,28 C52,33.4292399 56.3266708,37.8479317 61.7200952,37.9961582 L62,38 L90,38 L90,90 C90,95.5228475 85.5228475,100 80,100 L20,100 C14.4771525,100 10,95.5228475 10,90 L10,10 C10,4.4771525 14.4771525,1.01453063e-15 20,0 L52,0 Z M34.524,52.768 C28.692,52.768 24.156,54.712 20.916,58.6 C17.892,62.128 16.38,66.736 16.38,72.352 C16.38,78.112 17.892,82.792 20.988,86.392 C24.156,90.136 28.62,92.008 34.38,92.008 C39.204,92.008 43.092,90.784 45.972,88.408 C48.924,85.96 50.868,82.216 51.732,77.176 L43.596,77.176 C42.948,82.576 39.924,85.312 34.452,85.312 C31.284,85.312 28.908,84.16 27.324,81.928 C25.596,79.624 24.804,76.384 24.804,72.28 C24.804,68.248 25.668,65.08 27.396,62.848 C29.124,60.544 31.5,59.464 34.524,59.464 C36.972,59.464 38.988,60.04 40.5,61.192 C41.94,62.344 42.948,64.072 43.452,66.448 L51.588,66.448 C50.868,61.768 48.996,58.312 46.044,56.008 C43.164,53.848 39.348,52.768 34.524,52.768 Z M61,64 L55,64 L55,69 L50,69 L50,75 L55,75 L55,80 L61,80 L61,75 L66,75 L66,69 L61,69 L61,64 Z M81,64 L75,64 L75,69 L70,69 L70,75 L75,75 L75,80 L81,80 L81,75 L86,75 L86,69 L81,69 L81,64 Z" id="形状结合" fill="#5DBE8A"></path>
        <path d="M61.3336399,0.427683969 C62.6295165,0.427683969 63.8747767,0.930805067 64.8069483,1.83100093 L87.7613849,23.9980467 C89.3854411,25.5663939 89.7186076,27.9683622 88.7377471,29.8780692 L59.9999843,29.8775402 L59.9997412,0.607584269 C60.4243883,0.490327986 60.8716984,0.427683969 61.3336399,0.427683969 Z" id="形状结合" fill="#5DBE8A"></path>
    </g>
</svg>