<svg height="68" viewBox="0 0 1280 1024" width="85" xmlns="http://www.w3.org/2000/svg"><path d="m768 640h-256c-35.34 0-64 28.66-64 64v256c0 35.34 28.66 64 64 64h256c35.34 0 64-28.66 64-64v-256c0-35.34-28.66-64-64-64zm-384-576c0-35.34-28.66-64-64-64h-256c-35.34 0-64 28.66-64 64v256c0 35.34 28.66 64 64 64h191.44l146.32 256.08c22.2-38.12 63.04-64.08 110.24-64.08h.56l-128.56-224.98v-95.02h448v-128h-448zm832-64h-256c-35.34 0-64 28.66-64 64v256c0 35.34 28.66 64 64 64h256c35.34 0 64-28.66 64-64v-256c0-35.34-28.66-64-64-64z" fill="#1781b5"/></svg>
