<?xml version="1.0" encoding="UTF-8"?>
<svg width="100px" height="100px" viewBox="0 0 100 100" version="1.1" xmlns="http://www.w3.org/2000/svg" xmlns:xlink="http://www.w3.org/1999/xlink">
    <title>hpp</title>
    <g id="hpp" stroke="none" stroke-width="1" fill="none" fill-rule="evenodd">
        <path d="M52,0 L52,28 C52,33.4292399 56.3266708,37.8479317 61.7200952,37.9961582 L62,38 L90,38 L90,90 C90,95.5228475 85.5228475,100 80,100 L20,100 C14.4771525,100 10,95.5228475 10,90 L10,10 C10,4.4771525 14.4771525,0 20,0 L52,0 Z M43.028,38.584 L34.82,38.584 L34.82,91 L43.028,91 L43.028,70.192 C43.028,67.1617391 43.6867524,64.7243554 45.0672682,62.7538266 L45.26,62.488 C46.7,60.472 48.716,59.464 51.308,59.464 C54.116,59.464 56.204,60.328 57.644,62.128 C58.868,63.784 59.516,66.232 59.516,69.4 L59.516,91 L67.724,91 L67.724,67.96 C67.724,62.992 66.644,59.248 64.556,56.728 C62.324,54.064 58.94,52.768 54.404,52.768 C52.028,52.768 49.94,53.2 48.14,54.136 C46.124,55.144 44.396,56.656 43.028,58.744 L43.028,38.584 Z" id="形状" fill="#22A2C3"></path>
        <path d="M61.3336399,0.427683969 C62.6295165,0.427683969 63.8747767,0.930805067 64.8069483,1.83100093 L87.7613849,23.9980467 C89.3854411,25.5663939 89.7186076,27.9683622 88.7377471,29.8780692 L59.9997412,29.8775402 L59.9997412,0.607584269 C60.4243883,0.490327986 60.8716984,0.427683969 61.3336399,0.427683969 Z" id="路径" fill="#22A2C3"></path>
    </g>
</svg>