<?xml version="1.0" encoding="UTF-8"?>
<svg width="100px" height="100px" viewBox="0 0 100 100" version="1.1" xmlns="http://www.w3.org/2000/svg" xmlns:xlink="http://www.w3.org/1999/xlink">
    <title>txt</title>
    <g id="txt" stroke="none" stroke-width="1" fill="none" fill-rule="evenodd">
        <path d="M52,0 L52,28 C52,33.4292399 56.3266708,37.8479317 61.7200952,37.9961582 L62,38 L90,38 L90,90 C90,95.5228475 85.5228475,100 80,100 L20,100 C14.4771525,100 10,95.5228475 10,90 L10,10 C10,4.4771525 14.4771525,1.01453063e-15 20,0 L52,0 Z M53.452,41.752 L45.244,45.136 L45.244,53.776 L38.548,53.776 L38.548,60.544 L45.244,60.544 L45.244,81.568 C45.244,84.592 45.964,86.824 47.404,88.408 C48.916,90.136 51.292,91 54.532,91 L60.796,91 L60.796,84.232 L55.9,84.232 C55.036,84.232 54.46,84.016 54.028,83.584 C53.596,83.08 53.452,82.432 53.452,81.568 L53.452,60.544 L61.732,60.544 L61.732,53.776 L53.452,53.776 L53.452,41.752 Z" id="形状结合" fill="#5DBE8A"></path>
        <path d="M61.3336399,0.427683969 C62.6295165,0.427683969 63.8747767,0.930805067 64.8069483,1.83100093 L87.7613849,23.9980467 C89.3854411,25.5663939 89.7186076,27.9683622 88.7377471,29.8780692 L59.9999843,29.8775402 L59.9997412,0.607584269 C60.4243883,0.490327986 60.8716984,0.427683969 61.3336399,0.427683969 Z" id="形状结合" fill="#5DBE8A"></path>
    </g>
</svg>