<?xml version="1.0" encoding="UTF-8"?>
<svg width="100px" height="100px" viewBox="0 0 100 100" version="1.1" xmlns="http://www.w3.org/2000/svg" xmlns:xlink="http://www.w3.org/1999/xlink">
    <title>cc</title>
    <g id="cc" stroke="none" stroke-width="1" fill="none" fill-rule="evenodd">
        <path d="M52,0 L52,28 C52,33.4292399 56.3266708,37.8479317 61.7200952,37.9961582 L62,38 L90,38 L90,90 C90,95.5228475 85.5228475,100 80,100 L20,100 C14.4771525,100 10,95.5228475 10,90 L10,10 C10,4.4771525 14.4771525,1.01453063e-15 20,0 L52,0 Z M51.524,52.768 C45.692,52.768 41.156,54.712 37.916,58.6 C34.892,62.128 33.38,66.736 33.38,72.352 C33.38,78.112 34.892,82.792 37.988,86.392 C41.156,90.136 45.62,92.008 51.38,92.008 C56.204,92.008 60.092,90.784 62.972,88.408 C65.924,85.96 67.868,82.216 68.732,77.176 L60.596,77.176 C59.948,82.576 56.924,85.312 51.452,85.312 C48.284,85.312 45.908,84.16 44.324,81.928 C42.596,79.624 41.804,76.384 41.804,72.28 C41.804,68.248 42.668,65.08 44.396,62.848 C46.124,60.544 48.5,59.464 51.524,59.464 C53.972,59.464 55.988,60.04 57.5,61.192 C58.94,62.344 59.948,64.072 60.452,66.448 L68.588,66.448 C67.868,61.768 65.996,58.312 63.044,56.008 C60.164,53.848 56.348,52.768 51.524,52.768 Z" id="形状结合" fill="#5DBE8A"></path>
        <path d="M61.3336399,0.427683969 C62.6295165,0.427683969 63.8747767,0.930805067 64.8069483,1.83100093 L87.7613849,23.9980467 C89.3854411,25.5663939 89.7186076,27.9683622 88.7377471,29.8780692 L59.9999843,29.8775402 L59.9997412,0.607584269 C60.4243883,0.490327986 60.8716984,0.427683969 61.3336399,0.427683969 Z" id="形状结合" fill="#5DBE8A"></path>
    </g>
</svg>