<?xml version="1.0" encoding="UTF-8"?>
<svg width="100px" height="100px" viewBox="0 0 100 100" version="1.1" xmlns="http://www.w3.org/2000/svg" xmlns:xlink="http://www.w3.org/1999/xlink">
    <title>img_folder_open</title>
    <g id="img_folder_open" stroke="none" stroke-width="1" fill="none" fill-rule="evenodd">
        <path d="M22.95,10 L42.894,28 L75,28 C80.5228475,28 85,32.4771525 85,38 L85,44 L19.3573994,44 C16.2635137,44 13.3503227,45.4315575 11.4599051,47.8656841 L11.2680276,48.1210491 L0,63.626 L0,20 C-6.76353751e-16,14.4771525 4.4771525,10 10,10 L22.95,10 Z" id="形状结合" fill="#FCCB16"></path>
        <path d="M22.1242508,53 L100,53 L100,53 L89.348833,83.31486 C87.9416684,87.3198668 84.1592513,90 79.9142316,90 L10.2150616,90 C4.69221412,90 0.215061621,85.5228475 0.215061621,80 C0.215061621,77.9470414 0.846918445,75.9438278 2.02482283,74.2624057 L13.934012,57.2624057 C15.805533,54.5908672 18.8623942,53 22.1242508,53 Z" id="矩形" fill="#FCCB16"></path>
    </g>
</svg>