<?xml version="1.0" encoding="UTF-8"?>
<svg width="100px" height="100px" viewBox="0 0 100 100" version="1.1" xmlns="http://www.w3.org/2000/svg" xmlns:xlink="http://www.w3.org/1999/xlink">
    <title>asm</title>
    <g id="asm" stroke="none" stroke-width="1" fill="none" fill-rule="evenodd">
        <path d="M52,0 L52,28 C52,33.4292399 56.3266708,37.8479317 61.7200952,37.9961582 L62,38 L90,38 L90,90 C90,95.5228475 85.5228475,100 80,100 L20,100 C14.4771525,100 10,95.5228475 10,90 L10,10 C10,4.4771525 14.4771525,1.01453063e-15 20,0 L52,0 Z M49.96,52.768 C45.352,52.768 41.68,53.704 38.872,55.72 C35.992,57.592 34.624,60.256 34.624,63.712 C34.624,66.952 36.064,69.472 38.944,71.272 C40.744,72.424 43.84,73.504 48.232,74.512 C51.976,75.376 54.424,76.024 55.576,76.6 C57.736,77.608 58.816,78.976 58.816,80.704 C58.816,83.728 55.936,85.312 50.176,85.312 C47.44,85.312 45.496,84.808 44.272,83.944 C43.048,82.936 42.184,81.28 41.752,78.904 L33.76,78.904 C34.552,87.616 40.096,92.008 50.464,92.008 C61.624,92.008 67.24,88.048 67.24,80.128 C67.24,76.816 65.728,74.152 62.776,72.28 C60.76,70.912 57.592,69.76 53.416,68.752 C49.672,67.816 47.224,67.096 46,66.592 C43.984,65.728 43.048,64.648 43.048,63.496 C43.048,62.056 43.624,61.048 44.92,60.4 C46,59.752 47.656,59.464 49.816,59.464 C52.336,59.464 54.208,59.824 55.432,60.616 C56.584,61.336 57.448,62.704 58.024,64.576 L66.016,64.576 C65.152,56.656 59.752,52.768 49.96,52.768 Z" id="形状结合" fill="#5DBE8A"></path>
        <path d="M61.3336399,0.427683969 C62.6295165,0.427683969 63.8747767,0.930805067 64.8069483,1.83100093 L87.7613849,23.9980467 C89.3854411,25.5663939 89.7186076,27.9683622 88.7377471,29.8780692 L59.9999843,29.8775402 L59.9997412,0.607584269 C60.4243883,0.490327986 60.8716984,0.427683969 61.3336399,0.427683969 Z" id="形状结合" fill="#5DBE8A"></path>
    </g>
</svg>