<?xml version="1.0" encoding="UTF-8"?>
<svg width="100px" height="100px" viewBox="0 0 100 100" version="1.1" xmlns="http://www.w3.org/2000/svg" xmlns:xlink="http://www.w3.org/1999/xlink">
    <title>img_debuge</title>
    <g id="img_debuge" stroke="none" stroke-width="1" fill="none" fill-rule="evenodd">
        <path d="M50,15 C55.5228475,15 60,19.4771525 60,25 C60,27.2515563 59.2558827,29.3293148 58.000156,31.0007673 L41.999844,31.0007673 C40.7441173,29.3293148 40,27.2515563 40,25 C40,19.4771525 44.4771525,15 50,15 Z" id="形状结合" fill="#F5391C"></path>
        <path d="M18.1213203,62.3257654 L20.2737983,70.3594779 L28.0589958,72.4454206 C27.4207775,74.2896965 26.9188259,76.2350372 26.5703538,78.2584924 L18.4620621,76.0860442 C18.184442,76.0116561 17.926401,75.900671 17.6917389,75.7596702 C16.4142721,75.7095096 15.2624677,74.8386018 14.9139558,73.5379379 L12.3257654,63.8786797 C11.89694,62.2782813 12.8466874,60.6332705 14.4470857,60.204445 C16.047484,59.7756196 17.6924949,60.7253671 18.1213203,62.3257654 Z" id="形状结合" fill="#F5391C" transform="translate(20.140897, 69.179985) scale(1, -1) translate(-20.140897, -69.179985) "></path>
        <path d="M79.1213203,62.3257654 L81.2737983,70.3594779 L89.0589958,72.4454206 C88.4207775,74.2896965 87.9188259,76.2350372 87.5703538,78.2584924 L79.4620621,76.0860442 C79.184442,76.0116561 78.926401,75.900671 78.6917389,75.7596702 C77.4142721,75.7095096 76.2624677,74.8386018 75.9139558,73.5379379 L73.3257654,63.8786797 C72.89694,62.2782813 73.8466874,60.6332705 75.4470857,60.204445 C77.047484,59.7756196 78.6924949,60.7253671 79.1213203,62.3257654 Z" id="形状结合" fill="#F5391C" transform="translate(81.140897, 69.179985) scale(-1, -1) translate(-81.140897, -69.179985) "></path>
        <path d="M18.1213203,33.3257654 L20.2737983,41.3594779 L28.0589958,43.4454206 C27.4207775,45.2896965 26.9188259,47.2350372 26.5703538,49.2584924 L18.4620621,47.0860442 C18.184442,47.0116561 17.926401,46.900671 17.6917389,46.7596702 C16.4142721,46.7095096 15.2624677,45.8386018 14.9139558,44.5379379 L12.3257654,34.8786797 C11.89694,33.2782813 12.8466874,31.6332705 14.4470857,31.204445 C16.047484,30.7756196 17.6924949,31.7253671 18.1213203,33.3257654 Z" id="形状结合" fill="#F5391C"></path>
        <path d="M79.1213203,33.3257654 L81.2737983,41.3594779 L89.0589958,43.4454206 C88.4207775,45.2896965 87.9188259,47.2350372 87.5703538,49.2584924 L79.4620621,47.0860442 C79.184442,47.0116561 78.926401,46.900671 78.6917389,46.7596702 C77.4142721,46.7095096 76.2624677,45.8386018 75.9139558,44.5379379 L73.3257654,34.8786797 C72.89694,33.2782813 73.8466874,31.6332705 75.4470857,31.204445 C77.047484,30.7756196 78.6924949,31.7253671 79.1213203,33.3257654 Z" id="形状结合" fill="#F5391C" transform="translate(81.140897, 40.179985) scale(-1, 1) translate(-81.140897, -40.179985) "></path>
        <path d="M67.912363,35.9987204 C71.0919723,41.1725589 73,47.7891836 73,55 C73,71.5685425 62.9264069,85 50.5,85 C38.0735931,85 28,71.5685425 28,55 C28,47.7891836 29.9080277,41.1725589 33.087637,35.9987204 L67.912363,35.9987204 Z M50,61 C48.8954305,61 48,61.8954305 48,63 L48,63 L48,79 C48,80.1045695 48.8954305,81 50,81 C51.1045695,81 52,80.1045695 52,79 L52,79 L52,63 C52,61.8954305 51.1045695,61 50,61 Z M66.9637913,45 L61.8062087,45.0008893 L51.4374316,50.5025873 C50.9044808,50.7853776 50.2755585,50.8110858 49.7251583,50.5797119 L49.5625684,50.5025873 L39.1932087,45.0008893 L34.0362087,45 C32.9316392,45 32.0362087,45.8954305 32.0362087,47 C32.0362087,47.7401465 32.4449694,48.4197797 33.0987771,48.766698 L49.5625684,57.5025873 C50.1488143,57.8136566 50.8511857,57.8136566 51.4374316,57.5025873 L67.9012229,48.766698 C68.8769433,48.2489689 69.2482185,47.0382888 68.7304893,46.0625684 C68.383571,45.4087607 67.7039378,45 66.9637913,45 Z" id="形状结合" fill="#F5391C"></path>
        <path d="M24.5129339,75.7795126 L26.1569807,81.8837875 L32.4011841,83.5486588 C31.9515152,84.964756 31.6017924,86.454036 31.3642012,87.9998229 L24.7617726,86.2393456 C24.5507237,86.1830672 24.3545316,86.0989383 24.1760941,85.9919643 C23.2007183,85.9514737 22.3226495,85.286164 22.0553752,84.2934807 L20.0812207,76.9612748 C19.7527296,75.7412261 20.4754798,74.4858866 21.6955285,74.1573955 C21.6973037,74.1569176 21.6990795,74.1564417 21.7008559,74.155968 C22.9255029,73.8294032 24.1834177,74.5556565 24.5129339,75.7795126 Z" id="形状结合" fill="#F5391C" transform="translate(26.201582, 81.038805) scale(1, -1) translate(-26.201582, -81.038805) "></path>
        <path d="M73.5129339,75.7795126 L75.1569807,81.8837875 L81.4011841,83.5486588 C80.9515152,84.964756 80.6017924,86.454036 80.3642012,87.9998229 L73.7617726,86.2393456 C73.5507237,86.1830672 73.3545316,86.0989383 73.1760941,85.9919643 C72.2007183,85.9514737 71.3226495,85.286164 71.0553752,84.2934807 L69.0812207,76.9612748 C68.7527296,75.7412261 69.4754798,74.4858866 70.6955285,74.1573955 C70.6973037,74.1569176 70.6990795,74.1564417 70.7008559,74.155968 C71.9255029,73.8294032 73.1834177,74.5556565 73.5129339,75.7795126 Z" id="形状结合" fill="#F5391C" transform="translate(75.201582, 81.038805) scale(-1, -1) translate(-75.201582, -81.038805) "></path>
    </g>
</svg>