<?xml version="1.0" encoding="UTF-8"?>
<svg width="100px" height="100px" viewBox="0 0 100 100" version="1.1" xmlns="http://www.w3.org/2000/svg" xmlns:xlink="http://www.w3.org/1999/xlink">
    <title>img_src</title>
    <g id="img_src" stroke="none" stroke-width="1" fill="none" fill-rule="evenodd">
        <path d="M80,0 C85.5228475,-1.01453063e-15 90,4.4771525 90,10 L90,90 C90,95.5228475 85.5228475,100 80,100 L20,100 C14.4771525,100 10,95.5228475 10,90 L10,10 C10,4.4771525 14.4771525,1.01453063e-15 20,0 L80,0 Z M28.46,67.16 C26.15,67.16 24.26,67.67 22.76,68.72 C21.14,69.8 20.36,71.3 20.36,73.19 C20.36,75.08 21.17,76.52 22.82,77.51 C23.45,77.87 25.1,78.47 27.74,79.31 C30.11,80.03 31.49,80.51 31.91,80.72 C33.23,81.38 33.92,82.28 33.92,83.42 C33.92,84.32 33.44,85.01 32.54,85.55 C31.64,86.06 30.38,86.33 28.82,86.33 C27.05,86.33 25.76,86 24.92,85.4 C23.99,84.71 23.42,83.54 23.18,81.92 L19.7,81.92 C19.85,84.65 20.84,86.63 22.64,87.89 C24.11,88.91 26.18,89.42 28.82,89.42 C31.55,89.42 33.68,88.85 35.18,87.77 C36.68,86.66 37.43,85.13 37.43,83.21 C37.43,81.23 36.5,79.7 34.64,78.59 C33.8,78.11 31.94,77.39 29.03,76.49 C27.05,75.86 25.82,75.41 25.37,75.17 C24.35,74.63 23.87,73.88 23.87,72.98 C23.87,71.96 24.29,71.21 25.19,70.76 C25.91,70.37 26.93,70.19 28.28,70.19 C29.84,70.19 31.04,70.46 31.82,71.06 C32.6,71.63 33.17,72.59 33.47,73.91 L36.95,73.91 C36.74,71.57 35.87,69.83 34.37,68.72 C32.96,67.67 30.98,67.16 28.46,67.16 Z M70.64,67.16 C67.22,67.16 64.61,68.27 62.81,70.55 C61.22,72.53 60.44,75.14 60.44,78.32 C60.44,81.56 61.19,84.14 62.72,86.06 C64.46,88.28 67.13,89.42 70.7,89.42 C73.01,89.42 74.99,88.76 76.64,87.44 C78.41,86.03 79.52,84.08 80,81.56 L76.58,81.56 C76.16,83.18 75.44,84.41 74.42,85.22 C73.46,85.94 72.2,86.33 70.67,86.33 C68.33,86.33 66.59,85.58 65.48,84.14 C64.46,82.79 63.95,80.84 63.95,78.32 C63.95,75.86 64.46,73.94 65.51,72.56 C66.65,71 68.33,70.25 70.58,70.25 C72.08,70.25 73.31,70.55 74.27,71.21 C75.26,71.87 75.92,72.89 76.28,74.3 L79.7,74.3 C79.37,72.14 78.44,70.4 76.88,69.14 C75.26,67.82 73.16,67.16 70.64,67.16 Z M49.97,67.58 L40.43,67.58 L40.43,89 L43.94,89 L43.94,80.27 L49.49,80.27 C50.69,80.27 51.62,80.51 52.25,81.05 C52.85,81.56 53.21,82.4 53.33,83.57 L53.6,86.21 C53.72,87.41 54.02,88.34 54.53,89 L58.34,89 C57.62,88.22 57.17,87.17 57.05,85.85 L56.69,82.4 C56.45,80.3 55.4,79.07 53.54,78.65 L53.54,78.59 C54.68,78.29 55.61,77.66 56.27,76.7 C56.87,75.83 57.17,74.84 57.17,73.73 C57.17,71.69 56.48,70.13 55.16,69.05 C53.9,68.06 52.16,67.58 49.97,67.58 Z M49.49,70.58 C50.93,70.58 51.98,70.82 52.64,71.36 C53.3,71.87 53.63,72.71 53.63,73.88 C53.63,74.96 53.3,75.8 52.64,76.4 C51.92,76.97 50.87,77.27 49.49,77.27 L43.94,77.27 L43.94,70.58 L49.49,70.58 Z M63,47 L22,47 C20.3431458,47 19,48.3431458 19,50 C19,51.6568542 20.3431458,53 22,53 L22,53 L63,53 C64.6568542,53 66,51.6568542 66,50 C66,48.3431458 64.6568542,47 63,47 L63,47 Z M81,32 L22,32 C20.3431458,32 19,33.3431458 19,35 C19,36.6568542 20.3431458,38 22,38 L22,38 L81,38 C82.6568542,38 84,36.6568542 84,35 C84,33.3431458 82.6568542,32 81,32 L81,32 Z M47,19 L22,19 C20.3431458,19 19,20.3431458 19,22 C19,23.6568542 20.3431458,25 22,25 L22,25 L47,25 C48.6568542,25 50,23.6568542 50,22 C50,20.3431458 48.6568542,19 47,19 L47,19 Z" id="形状结合" fill="#FCC515"></path>
    </g>
</svg>