<?xml version="1.0" encoding="UTF-8"?>
<svg width="100px" height="100px" viewBox="0 0 100 100" version="1.1" xmlns="http://www.w3.org/2000/svg" xmlns:xlink="http://www.w3.org/1999/xlink">
    <title>img_asm</title>
    <g id="img_asm" stroke="none" stroke-width="1" fill="none" fill-rule="evenodd">
        <path d="M80,0 C85.5228475,-1.01453063e-15 90,4.4771525 90,10 L90,90 C90,95.5228475 85.5228475,100 80,100 L20,100 C14.4771525,100 10,95.5228475 10,90 L10,10 C10,4.4771525 14.4771525,1.01453063e-15 20,0 L80,0 Z M46.535,67.16 C44.225,67.16 42.335,67.67 40.835,68.72 C39.215,69.8 38.435,71.3 38.435,73.19 C38.435,75.08 39.245,76.52 40.895,77.51 C41.525,77.87 43.175,78.47 45.815,79.31 C48.185,80.03 49.565,80.51 49.985,80.72 C51.305,81.38 51.995,82.28 51.995,83.42 C51.995,84.32 51.515,85.01 50.615,85.55 C49.715,86.06 48.455,86.33 46.895,86.33 C45.125,86.33 43.835,86 42.995,85.4 C42.065,84.71 41.495,83.54 41.255,81.92 L37.775,81.92 C37.925,84.65 38.915,86.63 40.715,87.89 C42.185,88.91 44.255,89.42 46.895,89.42 C49.625,89.42 51.755,88.85 53.255,87.77 C54.755,86.66 55.505,85.13 55.505,83.21 C55.505,81.23 54.575,79.7 52.715,78.59 C51.875,78.11 50.015,77.39 47.105,76.49 C45.125,75.86 43.895,75.41 43.445,75.17 C42.425,74.63 41.945,73.88 41.945,72.98 C41.945,71.96 42.365,71.21 43.265,70.76 C43.985,70.37 45.005,70.19 46.355,70.19 C47.915,70.19 49.115,70.46 49.895,71.06 C50.675,71.63 51.245,72.59 51.545,73.91 L55.025,73.91 C54.815,71.57 53.945,69.83 52.445,68.72 C51.035,67.67 49.055,67.16 46.535,67.16 Z M28.685,67.58 L24.695,67.58 L16.505,89 L20.255,89 L22.205,83.63 L31.175,83.63 L33.125,89 L36.875,89 L28.685,67.58 Z M62.615,67.58 L58.505,67.58 L58.505,89 L62.015,89 L62.015,74.24 L62.135,74.24 L68.435,89 L71.465,89 L77.765,74.24 L77.885,74.24 L77.885,89 L81.395,89 L81.395,67.58 L77.285,67.58 L70.025,84.38 L69.905,84.38 L62.615,67.58 Z M26.765,71.36 L30.125,80.75 L23.255,80.75 L26.645,71.36 L26.765,71.36 Z M77,47 L58,47 C56.3431458,47 55,48.3431458 55,50 C55,51.6568542 56.3431458,53 58,53 L58,53 L77,53 C78.6568542,53 80,51.6568542 80,50 C80,48.3431458 78.6568542,47 77,47 L77,47 Z M41,47 L22,47 C20.3431458,47 19,48.3431458 19,50 C19,51.6568542 20.3431458,53 22,53 L22,53 L41,53 C42.6568542,53 44,51.6568542 44,50 C44,48.3431458 42.6568542,47 41,47 L41,47 Z M41,32 L22,32 C20.3431458,32 19,33.3431458 19,35 C19,36.6568542 20.3431458,38 22,38 L22,38 L41,38 C42.6568542,38 44,36.6568542 44,35 C44,33.3431458 42.6568542,32 41,32 L41,32 Z M77,32 L58,32 C56.3431458,32 55,33.3431458 55,35 C55,36.6568542 56.3431458,38 58,38 L58,38 L77,38 C78.6568542,38 80,36.6568542 80,35 C80,33.3431458 78.6568542,32 77,32 L77,32 Z M41,19 L22,19 C20.3431458,19 19,20.3431458 19,22 C19,23.6568542 20.3431458,25 22,25 L22,25 L41,25 C42.6568542,25 44,23.6568542 44,22 C44,20.3431458 42.6568542,19 41,19 L41,19 Z M77,19 L58,19 C56.3431458,19 55,20.3431458 55,22 C55,23.6568542 56.3431458,25 58,25 L58,25 L77,25 C78.6568542,25 80,23.6568542 80,22 C80,20.3431458 78.6568542,19 77,19 L77,19 Z" id="å½¢çŠ¶ç»“åˆ" fill="#FCC515"></path>
    </g>
</svg>